<?xml version="1.0" encoding="UTF-8"?>
<svg version="1.1" xmlns="http://www.w3.org/2000/svg" width="1024" height="1024">
<path d="M0 0 C337.92 0 675.84 0 1024 0 C1024 337.92 1024 675.84 1024 1024 C686.08 1024 348.16 1024 0 1024 C0 686.08 0 348.16 0 0 Z " fill="#FDFEFE" transform="translate(0,0)"/>
<path d="M0 0 C1.05195557 0.00161133 2.10391113 0.00322266 3.18774414 0.00488281 C18.73662568 0.24725859 34.21525946 4.35827655 46.4375 14.375 C51.05517695 19.30841554 54.43562772 24.46255541 54.43896484 31.43603516 C54.29515381 33.03390869 54.29515381 33.03390869 54.1484375 34.6640625 C52.98711135 47.26532951 52.98711135 47.26532951 57.16503906 58.67529297 C61.79604901 62.53171014 67.18643976 64.83115803 72.70751953 67.14501953 C77.05946242 69.1057679 80.92441709 71.7162577 84.875 74.375 C85.56529297 74.82109619 86.25558594 75.26719238 86.96679688 75.72680664 C94.92700724 80.87979783 101.10610862 85.91657167 103.75 95.375 C105.57973793 104.41812784 104.32722614 113.26454692 99.3125 121.125 C93.49558987 128.32796194 83.96078804 132.43078534 76 136.8125 C67.09775047 141.75290467 58.24441384 146.76659057 49.4375 151.875 C39.75154486 157.48956073 30.00977221 162.99413832 20.2277832 168.43945312 C14.14167385 171.83526584 8.1130148 175.30951806 2.125 178.875 C0.15706872 180.03229166 -1.81306303 181.18561509 -3.78564453 182.33496094 C-5.46658021 183.31885569 -7.13790999 184.31910851 -8.80859375 185.3203125 C-16.69701395 189.73126268 -24.00108898 191.06791043 -32.87890625 188.77734375 C-39.21110753 186.11311034 -44.43510433 180.33395052 -47.64933777 174.35246277 C-48.97316741 170.03597514 -48.8490095 165.91010778 -48.8371582 161.41918945 C-48.84226913 160.42015091 -48.84738007 159.42111237 -48.85264587 158.39179993 C-48.86653974 155.09056598 -48.86558467 151.78954096 -48.86328125 148.48828125 C-48.8671694 146.18767723 -48.87150432 143.88707393 -48.87626648 141.58647156 C-48.88372908 136.76213252 -48.88343791 131.93786665 -48.87817383 127.11352539 C-48.87239118 120.94790031 -48.88928108 114.7825768 -48.9125185 108.61700153 C-48.92729453 103.86331954 -48.92812206 99.10970942 -48.92500877 94.35600853 C-48.92552043 92.08394971 -48.93072889 89.8118867 -48.94082069 87.53985023 C-48.95323718 84.35229924 -48.94636104 81.16532583 -48.93481445 77.9777832 C-48.94245819 77.04911438 -48.95010193 76.12044556 -48.95797729 75.16363525 C-48.87809902 65.12414542 -46.2730964 56.0086697 -39.5625 48.375 C-26.16523275 36.85129695 -7.93785858 35.18977835 9.04736328 36.14111328 C21.11178435 37.32167665 32.0171997 42.71782567 42.55126953 48.37548828 C45.81517811 50.10503031 49.1286733 51.73338322 52.4375 53.375 C38.01079169 39.02462348 19.89309837 31.27276556 -0.375 31.0625 C-15.58664616 31.10738866 -30.52560175 34.64402096 -42.5625 44.375 C-44.24680497 46.10343523 -45.78247535 47.86531953 -47.2734375 49.76171875 C-48.60267418 51.42527859 -50.04727793 52.88140907 -51.5625 54.375 C-51.679465 50.04189672 -51.7500089 45.7092042 -51.8125 41.375 C-51.84601563 40.15425781 -51.87953125 38.93351562 -51.9140625 37.67578125 C-51.99316294 30.35899016 -51.50726435 25.58763449 -47.5625 19.375 C-47.02625 18.529375 -46.49 17.68375 -45.9375 16.8125 C-33.78278419 4.33792325 -16.91094948 -0.02708135 0 0 Z " fill="#040303" transform="translate(461.5625,409.625)"/>
<path d="M0 0 C1.20366211 0.57826538 1.20366211 0.57826538 2.43164062 1.16821289 C3.40641357 1.62647461 4.38118652 2.08473633 5.38549805 2.55688477 C6.97068237 3.34095703 6.97068237 3.34095703 8.58789062 4.14086914 C9.73555908 4.6906543 10.88322754 5.24043945 12.06567383 5.80688477 C16.4241133 7.90342998 20.75523668 10.05417603 25.08789062 12.20336914 C27.10266835 13.19969335 29.11748179 14.19594533 31.13232422 15.19213867 C42.18901571 20.66476255 53.23110116 26.16668992 64.25585938 31.70336914 C65.21433273 32.18322769 66.17280609 32.66308624 67.1603241 33.15748596 C71.53569491 35.36017912 75.8907536 37.59682676 80.20239258 39.92211914 C80.92836136 40.31334961 81.65433014 40.70458008 82.40229797 41.10766602 C84.08789062 42.20336914 84.08789062 42.20336914 85.08789062 44.20336914 C85.66343019 51.34005979 85.66343019 51.34005979 83.58789062 54.45336914 C78.38935426 58.09234459 72.87222736 60.31336361 66.96289062 62.51586914 C60.70105515 64.85674222 54.88973828 67.73700223 48.98632812 70.84790039 C46.08789062 72.20336914 46.08789062 72.20336914 43.08789062 72.20336914 C41.96668186 70.77637617 40.84552079 69.34934569 39.72460938 67.92211914 C29.0043755 56.6645943 11.39072833 53.16059151 -3.39770508 52.79638672 C-21.10423376 52.63984693 -39.01628933 55.44423256 -52.41210938 68.20336914 C-52.95867187 68.80149414 -53.50523437 69.39961914 -54.06835938 70.01586914 C-55.91210938 71.20336914 -55.91210938 71.20336914 -58.55664062 71.13696289 C-62.94631535 69.91562149 -66.96362407 68.16110977 -71.09960938 66.26586914 C-72.30907227 65.72542969 -72.30907227 65.72542969 -73.54296875 65.17407227 C-76.86526248 63.67448332 -79.86857174 62.23239423 -82.91210938 60.20336914 C-82.91210938 69.11336914 -82.91210938 78.02336914 -82.91210938 87.20336914 C-81.92210937 87.53336914 -80.93210937 87.86336914 -79.91210938 88.20336914 C-78.46230123 91.10298543 -79.04992944 93.53600295 -79.22460938 96.76586914 C-79.51198864 106.13930001 -76.3455817 113.54815764 -72.91210938 122.20336914 C-80.83210938 122.20336914 -88.75210937 122.20336914 -96.91210938 122.20336914 C-93.91210938 113.20336914 -93.91210938 113.20336914 -91.72460938 109.07836914 C-89.17954064 103.67129859 -89.69876877 98.18439673 -89.96679688 92.36352539 C-89.91210938 89.20336914 -89.91210938 89.20336914 -87.91210938 87.20336914 C-87.53914382 84.19364257 -87.53914382 84.19364257 -87.49804688 80.66430664 C-87.459375 79.36235352 -87.42070312 78.06040039 -87.38085938 76.71899414 C-87.34940174 75.33879052 -87.31815446 73.9585821 -87.28710938 72.57836914 C-87.24893004 71.19032373 -87.20987833 69.80230203 -87.16992188 68.41430664 C-87.07537995 65.01079729 -86.9898304 61.60729749 -86.91210938 58.20336914 C-88.32363281 57.77604492 -88.32363281 57.77604492 -89.76367188 57.34008789 C-93.61211339 55.95063816 -94.87365855 54.7314571 -96.91210938 51.20336914 C-97.47460938 47.70336914 -97.47460938 47.70336914 -96.91210938 44.20336914 C-93.2068927 39.76029985 -89.07723896 37.41136522 -84.00976562 34.86743164 C-83.19733902 34.45014801 -82.38491241 34.03286438 -81.54786682 33.60293579 C-79.70550835 32.65820956 -77.86088983 31.71788243 -76.01446533 30.78112793 C-72.63581568 29.06285502 -69.2673948 27.32519076 -65.89990234 25.58520508 C-60.08009328 22.58123064 -54.24646336 19.60542512 -48.40257835 16.64857101 C-45.01506225 14.93399944 -41.63196872 13.21169866 -38.25756836 11.47143555 C-34.93123472 9.75624113 -31.59535228 8.06115053 -28.25197029 6.37944412 C-26.9978821 5.74450294 -25.74722968 5.10272164 -24.50042534 4.45359421 C-16.06267309 0.06840963 -9.39422801 -2.56986637 0 0 Z " fill="#63479C" transform="translate(468.912109375,354.796630859375)"/>
<path d="M0 0 C4.4909361 0.42330711 7.87699362 2.45571768 11.64453125 4.76171875 C12.60137314 5.33503685 12.60137314 5.33503685 13.57754517 5.91993713 C15.65984722 7.16929635 17.73604491 8.42845169 19.8125 9.6875 C21.99401845 10.99917112 24.17708118 12.30824655 26.36018372 13.61727905 C27.82487994 14.4958381 29.28906178 15.37525526 30.75273132 16.25552368 C36.94711769 19.979217 43.18373782 23.62694433 49.4375 27.25 C57.94831669 32.19730013 66.4246834 37.20023632 74.875 42.25 C76.5000647 43.21728027 76.5000647 43.21728027 78.15795898 44.20410156 C79.15512939 44.8019043 80.1522998 45.39970703 81.1796875 46.015625 C82.06382324 46.54446289 82.94795898 47.07330078 83.85888672 47.61816406 C86 49 86 49 88 51 C87.87695312 53.44970703 87.87695312 53.44970703 87 56 C85.26367188 57.52294922 85.26367188 57.52294922 82.96875 58.8046875 C81.67723022 59.54477051 81.67723022 59.54477051 80.35961914 60.29980469 C79.41594482 60.81961914 78.47227051 61.33943359 77.5 61.875 C75.48753529 63.02212982 73.47584642 64.17062155 71.46484375 65.3203125 C69.87905518 66.2179834 69.87905518 66.2179834 68.26123047 67.13378906 C62.81007242 70.25316712 57.43949126 73.50500314 52.0625 76.75 C49.94549944 78.02244649 47.82831738 79.29459107 45.7109375 80.56640625 C44.72448242 81.15953613 43.73802734 81.75266602 42.72167969 82.36376953 C40.41142348 83.75265876 38.10057668 85.14054962 35.7890625 86.52734375 C35.17844971 86.89375977 34.56783691 87.26017578 33.9387207 87.63769531 C32.21653917 88.67009188 30.49304597 89.70029938 28.76953125 90.73046875 C25.77522731 92.52540363 22.79906669 94.34879848 19.82421875 96.17578125 C18.47130737 97.00106323 18.47130737 97.00106323 17.09106445 97.84301758 C15.31899953 98.92409664 13.55042221 100.01091944 11.78588867 101.10424805 C10.97740479 101.59578369 10.1689209 102.08731934 9.3359375 102.59375 C8.26158447 103.25407227 8.26158447 103.25407227 7.16552734 103.92773438 C4.76476567 105.11647679 2.65373567 105.66750552 0 106 C-1.53425806 104.46574194 -1.12592923 103.0768638 -1.12698364 100.93823242 C-1.12980347 100.0632309 -1.13262329 99.18822937 -1.13552856 98.28671265 C-1.13350433 97.31940216 -1.1314801 96.35209167 -1.12939453 95.35546875 C-1.13114685 94.34255768 -1.13289917 93.32964661 -1.13470459 92.28604126 C-1.13912522 88.91984369 -1.13618437 85.55369816 -1.1328125 82.1875 C-1.13348548 79.85961904 -1.13445545 77.53173814 -1.13571167 75.20385742 C-1.13718893 70.31786431 -1.13503318 65.43188944 -1.13037109 60.54589844 C-1.1246738 54.26727344 -1.12795265 47.98869118 -1.13394356 41.71006775 C-1.13754841 36.90099767 -1.13641093 32.09193781 -1.13381577 27.28286743 C-1.13314629 24.96709183 -1.13397564 22.65131531 -1.13629532 20.33554077 C-1.13882061 17.10517909 -1.13498299 13.87488767 -1.12939453 10.64453125 C-1.13141876 9.67722076 -1.13344299 8.70991028 -1.13552856 7.71328735 C-1.13270874 6.83828583 -1.12988892 5.9632843 -1.12698364 5.06176758 C-1.12660662 4.29705643 -1.12622959 3.53234528 -1.12584114 2.74446106 C-1 1 -1 1 0 0 Z " fill="#FDFDFD" transform="translate(446,460)"/>
<path d="M0 0 C6.25345309 3.90840818 10.49073225 10.26357243 15 16 C15.83972489 17.04957427 16.67956999 18.09905238 17.51953125 19.1484375 C36.89836519 43.58229574 47.42906121 68.46822864 45 100 C44.27605419 105.54917866 42.82457751 110.70632447 41 116 C40.649375 117.07507813 40.29875 118.15015625 39.9375 119.2578125 C32.59445041 140.01212627 17.71538601 167.52307599 -1 180 C-5.20414081 180.47594047 -7.46976921 180.27531214 -11.25 178.3125 C-15.46968485 174.76412865 -16.82339482 172.58944665 -17.4375 167.0625 C-17.63016901 160.80717946 -12.1024473 155.79434479 -8.4375 151.1875 C7.90717824 130.14008865 23.24857012 105.70649268 20 78 C15.29394677 55.7656036 0.90310559 38.14207124 -14.29296875 22.015625 C-17.54237975 18.17879188 -18.45895857 15.1307169 -18.31640625 10.02734375 C-17.63035671 5.63154485 -15.03226533 2.91429215 -11.8125 0.0625 C-7.65595018 -1.50775215 -4.24667088 -1.19603208 0 0 Z " fill="#030303" transform="translate(610,425)"/>
<path d="M0 0 C5.36191325 1.3342628 8.8489189 5.73035519 12.52734375 9.62890625 C13.31496094 10.44488281 14.10257813 11.26085937 14.9140625 12.1015625 C30.2029509 28.48066026 38.2227727 44.98785557 37.83203125 67.43359375 C37.03953269 88.93584816 27.58537718 108.71078032 12.33984375 123.79296875 C9.23782395 126.52016116 6.91098123 128.47167472 2.77734375 128.94140625 C-2.22235534 128.46066595 -5.12671563 126.1991703 -8.34765625 122.44140625 C-10.00067418 118.30886143 -10.55786814 114.99757977 -9.47265625 110.62890625 C-7.16926358 106.97605121 -4.32448617 103.86098016 -1.47265625 100.62890625 C7.97802486 88.7866242 13.26519229 74.34673826 12.83203125 59.08984375 C11.19101683 45.83549653 0.80563825 35.64389842 -7.95703125 26.35546875 C-13.16306324 20.71290612 -15.20492171 17.98028081 -14.93359375 10.2265625 C-14.25828524 6.42079842 -12.54836753 4.8462795 -9.47265625 2.62890625 C-5.98826839 0.30598101 -4.10922181 -0.09990004 0 0 Z " fill="#62479E" transform="translate(571.47265625,447.37109375)"/>
<path d="M0 0 C1.05195557 0.00161133 2.10391113 0.00322266 3.18774414 0.00488281 C18.73662568 0.24725859 34.21525946 4.35827655 46.4375 14.375 C52.16321561 20.49221753 54.71344564 26.40070793 54.6328125 34.8671875 C54.62636719 36.06601562 54.61992188 37.26484375 54.61328125 38.5 C54.58814453 40.35625 54.58814453 40.35625 54.5625 42.25 C54.55347656 43.51070313 54.54445313 44.77140625 54.53515625 46.0703125 C54.51165808 49.1720704 54.47880334 52.27343652 54.4375 55.375 C52.4375 54.375 52.4375 54.375 50.21484375 51.59375 C47.57027336 48.35494842 44.53637729 46.07351769 41 43.875 C40.09072754 43.3025354 40.09072754 43.3025354 39.16308594 42.71850586 C21.72306553 32.0354815 2.45396171 28.25265422 -17.6875 32.625 C-29.21625632 35.79467085 -39.71315828 40.14557413 -47.2734375 49.76171875 C-48.60267418 51.42527859 -50.04727793 52.88140907 -51.5625 54.375 C-51.679465 50.04189672 -51.7500089 45.7092042 -51.8125 41.375 C-51.84601563 40.15425781 -51.87953125 38.93351562 -51.9140625 37.67578125 C-51.99316294 30.35899016 -51.50726435 25.58763449 -47.5625 19.375 C-47.02625 18.529375 -46.49 17.68375 -45.9375 16.8125 C-33.78278419 4.33792325 -16.91094948 -0.02708135 0 0 Z " fill="#64489D" transform="translate(461.5625,409.625)"/>
<path d="M0 0 C1.13856445 0.00829834 2.27712891 0.01659668 3.45019531 0.02514648 C20.25420487 0.36137026 36.32950757 5.4376199 48.9296875 16.95703125 C50.1875 18.4375 50.1875 18.4375 50.1875 20.4375 C51.5075 20.1075 52.8275 19.7775 54.1875 19.4375 C53.5275 21.4175 52.8675 23.3975 52.1875 25.4375 C50.06057648 23.31057648 47.94546262 21.18237952 45.875 19 C40.08332362 13.47770392 34.67596154 10.53025037 27.125 8.1875 C26.34833984 7.93226563 25.57167969 7.67703125 24.77148438 7.4140625 C2.73043758 0.32210841 -19.57319431 4.19839088 -39.8125 14.4375 C-38.87577536 11.025972 -38.21220777 9.69641518 -35.1953125 7.7421875 C-34.12023437 7.27039063 -33.04515625 6.79859375 -31.9375 6.3125 C-30.88820313 5.83554687 -29.83890625 5.35859375 -28.7578125 4.8671875 C-19.29642871 1.21549219 -10.10127738 -0.09565033 0 0 Z " fill="#EAE8EA" transform="translate(461.8125,406.5625)"/>
<path d="M0 0 C0 0.33 0 0.66 0 1 C-1.02996094 1.02578125 -2.05992187 1.0515625 -3.12109375 1.078125 C-19.97707819 1.67748441 -34.90121656 5.32742473 -50 13 C-49.06327536 9.588472 -48.39970777 8.25891518 -45.3828125 6.3046875 C-30.4169504 -0.26306493 -16.24185819 -3.15672479 0 0 Z " fill="#F6F4F6" transform="translate(472,408)"/>
<path d="M0 0 C8.1304753 3.61354458 15.87635535 8.57154432 21 16 C16.57996611 14.36168628 12.51446972 12.2314329 8.375 10 C7.70726562 9.64421875 7.03953125 9.2884375 6.3515625 8.921875 C3.47825775 7.38178365 0.71456296 5.80970864 -2 4 C-1.34 2.68 -0.68 1.36 0 0 Z " fill="#ECEBEC" transform="translate(494,448)"/>
<path d="M0 0 C8.54043886 -0.59932904 15.8933076 1.60751107 24 4 C24 4.99 24 5.98 24 7 C23.02160156 6.80083984 23.02160156 6.80083984 22.0234375 6.59765625 C21.14945312 6.42105469 20.27546875 6.24445313 19.375 6.0625 C18.08722656 5.80146484 18.08722656 5.80146484 16.7734375 5.53515625 C15.85820312 5.35855469 14.94296875 5.18195313 14 5 C13.1028125 4.8246875 12.205625 4.649375 11.28125 4.46875 C6.90353348 3.84336193 2.53977824 3.64028725 -1.875 3.4375 C-2.75414062 3.39431641 -3.63328125 3.35113281 -4.5390625 3.30664062 C-6.69255797 3.20130661 -8.84626064 3.10022351 -11 3 C-11 2.67 -11 2.34 -11 2 C-5.555 1.505 -5.555 1.505 0 1 C0 0.67 0 0.34 0 0 Z " fill="#E2DDE6" transform="translate(466,407)"/>
<path d="M0 0 C0 0.33 0 0.66 0 1 C-2.31 1.33 -4.62 1.66 -7 2 C-7 2.66 -7 3.32 -7 4 C-8.98 4.33 -10.96 4.66 -13 5 C-13 4.34 -13 3.68 -13 3 C-13.66 2.67 -14.32 2.34 -15 2 C-9.75614911 0.2520497 -5.52677733 -0.19392201 0 0 Z " fill="#DBD3E2" transform="translate(457,407)"/>
<path d="M0 0 C-1 3 -1 3 -2.84765625 4.16796875 C-3.57855469 4.50441406 -4.30945313 4.84085937 -5.0625 5.1875 C-5.79597656 5.53167969 -6.52945312 5.87585938 -7.28515625 6.23046875 C-8.13400391 6.61138672 -8.13400391 6.61138672 -9 7 C-7.53563715 2.36285097 -7.53563715 2.36285097 -5.0625 0.6875 C-3 0 -3 0 0 0 Z " fill="#F7F4F5" transform="translate(431,414)"/>
<path d="M0 0 C2.475 0.99 2.475 0.99 5 2 C5 2.99 5 3.98 5 5 C3.1875 5.625 3.1875 5.625 1 6 C0.01 5.34 -0.98 4.68 -2 4 C-1.34 2.68 -0.68 1.36 0 0 Z " fill="#F2F1F1" transform="translate(494,448)"/>
</svg>
